PathFileType	4	(X/Y/Z)	RBDS010\RBDS010runT25.trc
DataRate	CameraRate	NumFrames	NumMarkers	Units	OrigDataRate	OrigDataStartFrame	OrigNumFrames
150.000000	150.000000	4	32	mm	150.000000	3937	4500
Frame#	Time	L.ASIS			L.Heel.Bottom			L.Heel.Lateral			L.Heel.Top			L.Iliac.Crest			L.MT5			L.PSIS			L.Shank.Bottom.Lateral			L.Shank.Bottom.Medial			L.Shank.Top.Lateral			L.Shank.Top.Medial			L.Thigh.Bottom.Lateral			L.Thigh.Bottom.Medial			L.Thigh.Top.Lateral			L.Thigh.Top.Medial			R.ASIS			R.ASY			R.Heel.Bottom			R.Heel.Lateral			R.Heel.Top			R.Iliac.Crest			R.MT1			R.MT5			R.PSIS			R.Shank.Bottom.Lateral			R.Shank.Bottom.Medial			R.Shank.Top.Lateral			R.Shank.Top.Medial			R.Thigh.Bottom.Lateral			R.Thigh.Bottom.Medial			R.Thigh.Top.Lateral			R.Thigh.Top.Medial			
		X1	Y1	Z1	X2	Y2	Z2	X3	Y3	Z3	X4	Y4	Z4	X5	Y5	Z5	X6	Y6	Z6	X7	Y7	Z7	X8	Y8	Z8	X9	Y9	Z9	X10	Y10	Z10	X11	Y11	Z11	X12	Y12	Z12	X13	Y13	Z13	X14	Y14	Z14	X15	Y15	Z15	X16	Y16	Z16	X17	Y17	Z17	X18	Y18	Z18	X19	Y19	Z19	X20	Y20	Z20	X21	Y21	Z21	X22	Y22	Z22	X23	Y23	Z23	X24	Y24	Z24	X25	Y25	Z25	X26	Y26	Z26	X27	Y27	Z27	X28	Y28	Z28	X29	Y29	Z29	X30	Y30	Z30	X31	Y31	Z31	X32	Y32	Z32	

3938	26.24666666666667	2201.921920058453	916.1715606186768	856.9648840174355	1843.409559939616	53.32281253766633	978.223517171942	1870.395698168505	64.46894067078141	930.6417125196234	1860.008030350412	102.1675765813028	976.3538244581674	2154.643227188197	997.0021070462046	830.3044256285165	2026.225362090315	41.1266239462065	895.4553281583215	2041.942288264394	963.7202180227953	950.9156605892581	1953.721660824829	168.9805362603482	903.9869084934393	1928.933920002507	195.7351445697226	943.8951409007675	1988.371906276357	236.362558787913	878.1780833575542	1964.546830777338	264.1130152551762	918.1474518758405	2131.929512400868	520.3208028139283	824.9515122784355	2080.408661984292	509.1036063895626	874.5653756569857	2097.023808483855	624.490859647233	815.0699578644799	2049.917853355986	615.0369386788916	863.5854121448975	2231.285372892253	907.8911460365177	1084.08316647093	2090.458407043312	186.9593636347567	1072.273853564474	1931.832115850907	288.7152258758931	1069.684988624664	1969.16126383863	284.1101423442295	1110.559424574204	1975.346221734214	310.9325633163911	1062.418105744198	2167.295340587744	988.4713344613701	1135.135219637493	2066.902121966821	127.7572485649541	1027.867734880816	2062.559725954071	152.0238112129642	1139.403164209917	2054.713919821178	960.4826787523727	1047.606378031478	2096.897792634796	319.6929606313674	1111.235605461637	2072.415695893819	354.7461374006758	1082.601961128016	2162.253928265907	373.5524223414556	1117.916634363514	2133.759645134276	406.984189105009	1087.673274519756	2311.666116270572	572.1231710225721	1136.813046300816	2261.090234310093	538.5210133127741	1094.320814065577	2241.129367835917	654.8477367102246	1151.529458402986	2191.139414818227	622.1187437107741	1114.926485328143	
3939	26.25333333333333	2201.9035551009	918.633472154374	856.6692891370654	1827.717034624591	58.36328965358875	978.0339427424344	1854.968571371774	68.61755587551451	930.3943598697074	1845.34579981649	106.8098606148264	975.891385012543	2155.146823874996	999.9105128259716	830.3158236202424	2009.65437882835	41.49137528888117	895.51090229969	2042.153062177576	966.9364067731752	950.7491204676691	1939.304828014821	172.6425794786523	904.0235964139124	1914.659195716606	199.4455767352972	943.981667471015	1974.450060763454	239.8913831591926	878.5340621342579	1950.826480938506	267.6591857318114	918.5681510967705	2122.477660966709	522.8909755805153	825.9221482127081	2070.699802582631	513.3063335880729	875.6473706117965	2090.566725478664	627.9761443752719	815.8897163126753	2043.231483416791	620.0317114151776	864.502896791283	2231.300641332513	911.5039114931343	1083.55422289035	2110.088580717594	181.1738250428162	1071.733543284693	1946.580321517513	274.740665731866	1068.866527132614	1983.903968803523	271.9898799284906	1109.858939812585	1989.002103017179	299.1435837653576	1061.72846522137	2168.016313999128	992.266666132924	1135.003994852552	2089.884877562538	120.9074252901279	1027.260155792712	2084.06334069389	144.8199522479233	1138.704329759825	2054.685863287736	964.2006564234404	1047.605184058107	2110.026333425414	313.8397450341042	1110.771408838763	2083.78748524504	347.7417732969682	1082.355449742753	2172.631405714833	370.8821325930227	1117.750691125791	2142.378225714759	402.9573007373173	1087.735908778958	2315.206300726919	578.4716833881446	1136.619363931164	2265.281415182259	544.3006004862016	1093.813569438379	2243.297737643916	660.060387644278	1151.440560540134	2194.046469106172	626.8595320349987	1114.3037581961	
3940	26.26	2202.335414322702	921.3965372761098	856.5318821416431	1812.37271999761	64.03620120047263	977.7520983533487	1839.911259235664	73.26781839710681	930.0532052345943	1831.149652381239	112.0076079333182	975.2921012857689	2156.034915280545	1003.170171939426	830.33322270172	1993.227143841675	41.90803736454299	895.5061018365894	2042.699649332968	970.5220204471386	950.3763768711367	1925.247674140526	176.7535793055546	903.9739316024655	1900.715543355412	203.5555812042681	944.0025435463281	1960.819270035015	243.9147064513925	878.8418669179173	1937.361246785246	271.648036597781	918.9630504367732	2113.192794773177	526.0085471639981	827.0049062349088	2061.240859749582	518.1335345763842	876.9120429437107	2084.353851201939	631.9371918925198	816.7897629165382	2036.85979978664	625.5721325541083	865.5659868018041	2231.382501563191	915.601324813626	1083.245231927117	2130.069084221296	175.2998070999037	1071.049260056454	1961.966880508283	260.1624112068382	1067.771057097357	1999.155997932598	259.336274635567	1108.926432493663	2003.121976040998	286.7782897273983	1060.821943260834	2168.45350203764	996.5249402820859	1134.894302976924	2113.42917776307	114.1587982982101	1026.469874479971	2106.006742800282	137.5418348649607	1137.814333995726	2054.792133880617	968.3281388130846	1047.424766560983	2123.269136229274	307.6309823494788	1110.157242558679	2095.257659465333	340.23371031708	1081.941233934388	2182.831946268009	367.8440711748929	1117.460262252599	2150.801942728084	398.4283312814889	1087.659289735574	2318.059951466767	584.7915335942359	1136.30703014323	2268.63713340911	550.1455909310373	1093.318552272752	2245.095077810411	665.43174945559	1151.237935134592	2196.413510886499	631.8941942903349	1113.706171462858	
3941	26.26666666666667	2203.241143574929	924.4288786070194	856.5893980268789	1797.433801748026	70.33883844944428	977.3685040252121	1825.271486635377	78.4191660538839	929.6167441945865	1817.47971876721	117.7435073426391	974.5606823471684	2157.386275366777	1006.765330851755	830.375520002096	1976.958241195724	42.3761111927646	895.4400166532215	2043.594713512563	974.431638248232	949.7926793624422	1911.586152976087	181.2949402607261	903.8443985582691	1887.160061229191	208.0424490285723	943.9770659396256	1947.513144505058	248.4122846869126	879.0974033471501	1924.202788996784	276.0562293562493	919.3410760943175	2104.124361151977	529.6547519291051	828.1434187419363	2052.08108883514	523.5329624828767	878.2900961012018	2078.410295851189	636.350444014726	817.7312012037997	2030.831325513082	631.6017805632055	866.7260455255046	2231.522681167986	920.1075578210192	1083.191535691488	2150.395199144222	169.3987872598198	1070.238794613025	1978.061665917547	245.0603803871396	1066.419083459551	2014.983267947599	246.2032248214606	1107.780192982559	2017.764748355641	273.8978690738225	1059.719535729316	2168.547933398858	1001.186192389814	1134.800794435988	2137.502957913629	107.6042907797761	1025.510221349962	2128.373547768184	130.2497243101829	1136.749806440205	2055.038713248082	972.7952211658049	1047.053028158524	2136.640340714688	301.0906115549409	1109.411029006106	2106.866607614815	332.2455502108633	1081.358227400132	2192.860702368648	364.425067802556	1117.059307642402	2159.077599617115	393.3823884612539	1087.430974858293	2320.224566872579	590.9618562695216	1135.898906194327	2271.132405799212	555.9082098458545	1092.885676991713	2246.511751428409	670.8597221366874	1150.928068490404	2198.212750857469	637.092276420234	1113.168988195429	
